<?xml version="1.0" encoding="UTF-8"?>
<svg width="16px" height="16px" viewBox="0 0 16 16" version="1.1" xmlns="http://www.w3.org/2000/svg" xmlns:xlink="http://www.w3.org/1999/xlink">
    <!-- Generator: sketchtool 48.2 (47327) - http://www.bohemiancoding.com/sketch -->
    <title>658E6550-8D7A-468F-BEBA-28D9CBF4FC4D</title>
    <desc>Created with sketchtool.</desc>
    <defs></defs>
    <g id="Icons" stroke="none" stroke-width="1" fill="none" fill-rule="evenodd" fill-opacity="0.64">
        <g id="Icons/16/cross" fill="#ffffff">
            <path d="M9.41421356,8 L12.9497475,11.5355339 C13.3402718,11.9260582 13.3402718,12.5592232 12.9497475,12.9497475 C12.5592232,13.3402718 11.9260582,13.3402718 11.5355339,12.9497475 L8,9.41421356 L4.46446609,12.9497475 C4.0739418,13.3402718 3.44077682,13.3402718 3.05025253,12.9497475 C2.65972824,12.5592232 2.65972824,11.9260582 3.05025253,11.5355339 L6.58578644,8 L3.05025253,4.46446609 C2.65972824,4.0739418 2.65972824,3.44077682 3.05025253,3.05025253 C3.44077682,2.65972824 4.0739418,2.65972824 4.46446609,3.05025253 L8,6.58578644 L11.5355339,3.05025253 C11.9260582,2.65972824 12.5592232,2.65972824 12.9497475,3.05025253 C13.3402718,3.44077682 13.3402718,4.0739418 12.9497475,4.46446609 L9.41421356,8 Z" id="Combined-Shape"></path>
        </g>
    </g>
</svg>