<?xml version="1.0" encoding="UTF-8"?>
<svg width="32px" height="32px" viewBox="0 0 32 32" version="1.1" xmlns="http://www.w3.org/2000/svg" xmlns:xlink="http://www.w3.org/1999/xlink">
    <!-- Generator: sketchtool 48.2 (47327) - http://www.bohemiancoding.com/sketch -->
    <title>8974B92B-4D9C-40A2-B806-5F7FD9B18E03</title>
    <desc>Created with sketchtool.</desc>
    <defs></defs>
    <g id="Icons" stroke="none" stroke-width="1" fill="none" fill-rule="evenodd">
        <g id="Icons/32/electro_active" fill="#3A64C8">
            <g id="support_icons/electro" transform="translate(7.000000, 7.000000)">
                <path d="M9,1.05882353 C13.3786994,1.05882353 16.9411765,4.62143792 16.9411765,8.99969383 C16.9411765,13.3791744 13.3786994,16.9411765 9,16.9411765 C4.62130057,16.9411765 1.05882353,13.3791744 1.05882353,8.99969383 C1.05882353,4.62143792 4.62130057,1.05882353 9,1.05882353 M9,18 C13.9631288,18 18,13.9624991 18,8.99937032 C18,4.0368712 13.9631288,0 9,0 C4.03750087,0 0,4.0368712 0,8.99937032 C0,13.9624991 4.03750087,18 9,18" id="Fill-2"></path>
                <path d="M9,3 C12.3086053,3 15,5.691855 15,8.99970328 C15,12.308145 12.3086053,15 9,15 C5.69198813,15 3,12.308145 3,8.99970328 C3,5.691855 5.69198813,3 9,3 M9,16 C12.8602536,16 16,12.8595041 16,8.99969391 C16,5.13988369 12.8602536,2 9,2 C5.14035855,2 2,5.13988369 2,8.99969391 C2,12.8595041 5.14035855,16 9,16" id="Fill-4"></path>
                <path d="M9,6 C10.6550659,6 12,7.34603109 12,8.99969114 C12,10.6539689 10.6550659,12 9,12 C7.34555189,12 6,10.6539689 6,8.99969114 C6,7.34603109 7.34555189,6 9,6 M9,13 C11.2054684,13 13,11.2053232 13,8.9996764 C13,6.79402961 11.2054684,5 9,5 C6.79453163,5 5,6.79402961 5,8.9996764 C5,11.2053232 6.79453163,13 9,13" id="Fill-6"></path>
            </g>
        </g>
    </g>
</svg>