<?xml version="1.0" encoding="UTF-8"?>
<svg width="32px" height="32px" viewBox="0 0 32 32" version="1.1" xmlns="http://www.w3.org/2000/svg" xmlns:xlink="http://www.w3.org/1999/xlink">
    <!-- Generator: sketchtool 48.2 (47327) - http://www.bohemiancoding.com/sketch -->
    <title>EAD8B525-E75B-46A1-BF58-92983C08F39D</title>
    <desc>Created with sketchtool.</desc>
    <defs></defs>
    <g id="Icons" stroke="none" stroke-width="1" fill="none" fill-rule="evenodd">
        <g id="Icons/32/gas_active" fill="#3A64C8">
            <path d="M16,14.6389384 C16.3489587,14.6389384 16.6974258,14.771641 16.962831,15.0370461 C17.4941328,15.568348 17.4941328,16.4318978 16.962831,16.9631996 C16.4320206,17.49401 15.5679794,17.49401 15.037169,16.9631996 C14.5058672,16.4318978 14.5058672,15.568348 15.037169,15.0370461 C15.3025742,14.771641 15.6510413,14.6389384 16,14.6389384 Z M17.4150028,17.4148799 C18.1949991,16.6348836 18.1949991,15.3653622 17.4150028,14.5853659 C16.634515,13.804878 15.365485,13.804878 14.5849972,14.5853659 C13.8050009,15.3653622 13.8050009,16.6348836 14.5849972,17.4148799 C14.9752411,17.8051238 15.4878663,17.9997543 16,17.9997543 C16.5121337,17.9997543 17.0247589,17.8051238 17.4150028,17.4148799 Z" id="Fill-2"></path>
            <path d="M12.8302001,13.6963899 L14.0721294,13.3285494 L14.8053165,12.260565 L16.0272952,12.6938687 L17.2486503,12.260565 L17.9818375,13.3285494 L19.2237668,13.6963899 L19.1907235,14.9913132 L19.978775,16.0193962 L19.1907235,17.0474793 L19.2237668,18.3424025 L17.9818375,18.710243 L17.2486503,19.7776039 L16.0272952,19.3443003 L14.8053165,19.7776039 L14.0721294,18.710243 L12.8302001,18.3417791 L12.8632434,17.0474793 L12.0751918,16.0193962 L12.8632434,14.9906897 L12.8302001,13.6963899 Z M12.0458893,17.3130726 L12.0034941,18.942793 L13.567128,19.4053992 L14.4898465,20.7501992 L16.0272952,20.204673 L17.5641203,20.7501992 L18.4868389,19.4060227 L20.0504727,18.9434165 L20.0080776,17.3130726 L21,16.0193962 L20.0080776,14.7257199 L20.0504727,13.0953759 L18.4868389,12.6327698 L17.5641203,11.2879698 L16.0272952,11.833496 L14.4898465,11.2879698 L13.567128,12.6327698 L12.0034941,13.0953759 L12.0458893,14.7250964 L11.0533434,16.0193962 L12.0458893,17.3130726 Z" id="Fill-6"></path>
            <path d="M16,25 C11.0375009,25 7,20.9624991 7,15.9993703 C7,11.0368712 11.0375009,7 16,7 C20.9631288,7 25,11.0368712 25,15.9993703 C25,20.9624991 20.9631288,25 16,25 Z M16,8.05882353 C11.6213006,8.05882353 8.05882353,11.6214379 8.05882353,15.9996938 C8.05882353,20.3791744 11.6213006,23.9411765 16,23.9411765 C20.3786994,23.9411765 23.9411765,20.3791744 23.9411765,15.9996938 C23.9411765,11.6214379 20.3786994,8.05882353 16,8.05882353 Z" id="Combined-Shape"></path>
            <rect id="Rectangle-12" transform="translate(22.500000, 9.619527) rotate(-320.000000) translate(-22.500000, -9.619527) " x="22" y="6.61952713" width="1" height="6"></rect>
            <rect id="Rectangle-12" transform="translate(22.500000, 22.000000) scale(1, -1) rotate(-320.000000) translate(-22.500000, -22.000000) " x="22" y="19" width="1" height="6"></rect>
            <rect id="Rectangle-12" transform="translate(9.500000, 9.619527) scale(-1, 1) rotate(-320.000000) translate(-9.500000, -9.619527) " x="9" y="6.61952713" width="1" height="6"></rect>
            <rect id="Rectangle-12" transform="translate(9.500000, 22.000000) scale(-1, -1) rotate(-320.000000) translate(-9.500000, -22.000000) " x="9" y="19" width="1" height="6"></rect>
        </g>
    </g>
</svg>