<?xml version="1.0" encoding="UTF-8"?>
<svg width="32px" height="32px" viewBox="0 0 32 32" version="1.1" xmlns="http://www.w3.org/2000/svg" xmlns:xlink="http://www.w3.org/1999/xlink">
    <!-- Generator: sketchtool 48.2 (47327) - http://www.bohemiancoding.com/sketch -->
    <title>81E057B4-021D-4B2F-841A-99F9B1EBE541</title>
    <desc>Created with sketchtool.</desc>
    <defs></defs>
    <g id="Icons" stroke="none" stroke-width="1" fill="none" fill-rule="evenodd">
        <g id="Icons/32/glass_keramic_active" fill="#3A64C8">
            <g id="support_icons/glass_keramic" transform="translate(7.000000, 7.000000)">
                <g id="Group-6">
                    <path d="M9,1 C13.4105174,1 17,4.58900413 17,9.00030844 C17,13.4116128 13.4105174,17 9,17 C4.58886576,17 1,13.4116128 1,9.00030844 C1,4.58900413 4.58886576,1 9,1 M9,18 C13.9624991,18 18,13.9624991 18,9 C18,4.0368712 13.9624991,1.88737914e-15 9,1.88737914e-15 C4.0368712,1.88737914e-15 0,4.0368712 0,9 C0,13.9624991 4.0368712,18 9,18" id="Fill-2"></path>
                    <path d="M7.38461538,9 C7.38461538,8.10974143 8.10898785,7.38461538 9,7.38461538 C9.89101215,7.38461538 10.6153846,8.10974143 10.6153846,9 C10.6153846,9.89025857 9.89101215,10.6153846 9,10.6153846 C8.10898785,10.6153846 7.38461538,9.89025857 7.38461538,9 Z M2.48414623,9.40247956 L2.48414623,9.42197467 L2,9.42197467 C2.21252133,12.9575061 5.04697745,15.7912137 8.58375999,16 L8.58375999,15.1673704 C5.78325698,14.979337 3.49708075,12.9216602 2.94942962,10.2351092 L4.23084523,10.2351092 C4.7470583,12.2267541 6.4774095,13.7329081 8.58375999,13.9102507 L8.58375999,13.0776211 C8.58061619,13.0769922 8.57810114,13.0763633 8.5755861,13.0757344 L8.5755861,11.8815021 C8.71517111,11.9016261 8.85475613,11.9242656 9,11.9242656 C10.1613222,11.9242656 11.1579089,11.2381637 11.6294799,10.2546043 L12.8907752,10.2546043 C12.398455,11.7739646 11.0535345,12.9115982 9.41624001,13.0776211 L9.41624001,13.9102507 C9.41812629,13.9102507 9.41938381,13.9096218 9.4212701,13.9096218 L9.4212701,15.1667415 C9.41938381,15.1667415 9.41812629,15.1673704 9.41624001,15.1673704 L9.41624001,16 C12.9523938,15.7912137 15.7874787,12.9575061 15.9993712,9.42197467 L15.1668912,9.42197467 C14.9770053,12.2129189 12.9297584,14.4919594 10.2537501,15.0466265 L10.2537501,13.7649807 C12.2368634,13.2423861 13.7339441,11.5154973 13.9106261,9.4163148 L13.0762598,9.4163148 C13.0762598,9.41820142 13.075631,9.42008804 13.0750022,9.42197467 L11.8809845,9.42197467 C11.9011048,9.28299344 11.9237402,9.14401222 11.9237402,9 C11.9237402,7.83846914 11.2377616,6.84107448 10.2537501,6.36941874 L10.2537501,5.10852574 C11.7728375,5.59967658 12.9102668,6.94609649 13.0762598,8.5836852 L13.2787209,8.5836852 L13.9106261,8.5836852 L15.1668912,8.5836852 C15.1668912,8.58557183 15.16752,8.58745845 15.16752,8.58934507 L16,8.58934507 C15.7937663,5.0481538 12.9561664,2.20878627 9.41624001,2 L9.41624001,2.83262959 C12.2117129,3.02003414 14.4941166,5.07079328 15.0474266,7.75105561 L13.766011,7.75105561 C13.2453966,5.7656994 11.5175604,4.26646303 9.41624001,4.08974935 L9.41624001,4.92237894 C9.41812629,4.92237894 9.41938381,4.92300782 9.4212701,4.92363669 L9.4212701,6.11849789 C9.28231384,6.09837391 9.14461511,6.07573444 9,6.07573444 C7.83993533,6.07573444 6.84460613,6.75932082 6.37240636,7.74099362 L5.11173987,7.74099362 C5.60406,6.22414877 6.94835175,5.08840176 8.58375999,4.92237894 L8.58375999,4.08974935 C8.58061619,4.08974935 8.57810114,4.09037822 8.5755861,4.09037822 L8.5755861,2.83325847 C8.57810114,2.83325847 8.58061619,2.83262959 8.58375999,2.83262959 L8.58375999,2 C5.04320489,2.20878627 2.20686248,5.0481538 2,8.58934507 L2.83310878,8.58934507 C3.01796461,5.79399874 5.06521153,3.5105561 7.74310608,2.95400234 L7.74310608,4.23564819 C5.7618791,4.75887162 4.26605587,6.48450274 4.08937393,8.5836852 L4.92436899,8.5836852 C4.92436899,8.58054083 4.92562652,8.57739646 4.92625528,8.57362321 L6.1196443,8.57362321 C6.09889518,8.71386219 6.07625977,8.85410116 6.07625977,9 C6.07625977,10.1602731 6.76098087,11.15641 7.74310608,11.6286946 L7.74310608,12.8908454 C6.22590497,12.3990657 5.08973323,11.0526458 4.92436899,9.4163148 L4.7193928,9.4163148 L4.7193928,9.40247956 L2.48414623,9.40247956 Z" id="Fill-4"></path>
                </g>
            </g>
        </g>
    </g>
</svg>