<?xml version="1.0" encoding="UTF-8"?>
<svg width="32px" height="32px" viewBox="0 0 32 32" version="1.1" xmlns="http://www.w3.org/2000/svg" xmlns:xlink="http://www.w3.org/1999/xlink">
    <!-- Generator: sketchtool 48.2 (47327) - http://www.bohemiancoding.com/sketch -->
    <title>634B10BC-2558-4311-8B1B-8621B14A4511</title>
    <desc>Created with sketchtool.</desc>
    <defs></defs>
    <g id="Icons" stroke="none" stroke-width="1" fill="none" fill-rule="evenodd">
        <g id="Icons/32/heat_closet_active" fill="#3A64C8">
            <path d="M22,18 C21.5566496,20.0005049 21.0566496,21.0005049 20.5,21 L11.5,21 C10.9394118,20.9914025 10.4394118,19.9914025 10,18 L22,18 Z M10,21 C10.1291312,21.3595755 10.7652645,21.9863733 11,22 L21,22 C21.2270541,22.0007563 21.8637859,21.3754725 22,21 L23,18 C23.0277363,17.7183951 23.007988,17.4723694 23,17 L9,17 C8.99211026,17.4534443 8.972362,17.700227 9,18 L10,21 Z" id="Fill-1"></path>
            <path d="M7.99999874,12 L24,12 L24,22 C23.9888159,23.1456347 23.3053043,24 22.5,24 L9.5,24 C8.89432288,23.9993972 7.99941172,23.2113076 8,22 L7.99999874,12 Z M8,10 C8.00353376,8.58478406 8.73973458,8.0873838 10,8 L22,8 C23.2667426,8.00159968 24.0011765,8.50139946 24,10 L24.0000014,13 L8,13 L8,10 Z M22.9999972,25 C23.8717709,24.9325844 24.9849114,23.7971811 24.9999968,22 L24.9999968,10 C25.0018046,8.14033984 23.8910774,7.0018512 22.9999972,7 L8.99999965,7 C8.12822468,7.06741558 7.01568752,8.20281888 7,10 L7,22 C6.99879433,23.8596602 8.10891818,24.9981488 8.99999965,25 L22.9999972,25 Z" id="Fill-3"></path>
            <polygon id="Fill-5" points="9 11 11 11 11 10 9 10"></polygon>
            <polygon id="Fill-7" points="13 11 15 11 15 10 13 10"></polygon>
            <polygon id="Fill-9" points="17 11 19 11 19 10 17 10"></polygon>
            <polygon id="Fill-11" points="21 11 23 11 23 10 21 10"></polygon>
            <polygon id="Fill-13" points="18 16 14 16 14 17 18 17"></polygon>
        </g>
    </g>
</svg>