<?xml version="1.0" encoding="UTF-8"?>
<svg width="32px" height="32px" viewBox="0 0 32 32" version="1.1" xmlns="http://www.w3.org/2000/svg" xmlns:xlink="http://www.w3.org/1999/xlink">
    <!-- Generator: sketchtool 48.2 (47327) - http://www.bohemiancoding.com/sketch -->
    <title>C8A799A1-93E5-4F3B-9803-A61E83B63A25</title>
    <desc>Created with sketchtool.</desc>
    <defs></defs>
    <g id="Icons" stroke="none" stroke-width="1" fill="none" fill-rule="evenodd">
        <g id="Icons/32/induction_active" fill="#3A64C8">
            <path d="M8.17032453,9.20748679 C8.77953208,8.41593962 9.73168302,7.95767547 10.7460226,7.95767547 C10.8070038,7.95767547 10.8691925,7.95888302 10.9307774,7.96250566 C11.5526642,7.99692075 12.1214189,8.19858113 12.5965887,8.53186415 C12.5416453,8.59405283 12.483683,8.65322264 12.432966,8.71963774 C11.3027019,10.1868075 11.7827019,12.7129962 12.8332679,15.3158642 C12.2741736,16.6966943 11.5731925,18.1312604 10.8873057,19.4269585 C8.71130566,15.6769208 6.70677736,11.108166 8.17032453,9.20748679 M13.1852679,9.07043019 C13.2842868,9.18937358 13.3784755,9.31375094 13.4605887,9.44899623 C13.776966,9.96944906 13.8735698,10.2477887 13.8989283,10.3890717 C14.0704,11.3424302 13.7793811,12.7027321 13.2565132,14.1958642 C12.5090415,12.1128453 12.259683,10.2544302 13.0657208,9.20748679 C13.1031547,9.15918491 13.1454189,9.11631698 13.1852679,9.07043019 M15.6414189,7.95767547 C15.7030038,7.95767547 15.7645887,7.95888302 15.8267774,7.96250566 C16.4377962,7.99631698 16.9980981,8.1925434 17.4690415,8.51556226 C17.4092679,8.58318491 17.3458717,8.64778868 17.2903245,8.71963774 C16.1552302,10.1952604 16.6467019,12.7431849 17.7099472,15.3623547 C17.1538717,16.7286943 16.4607396,18.1457509 15.7827019,19.4269585 C15.0147019,18.1022792 14.2708528,16.6773736 13.6906264,15.3019774 C14.4435321,13.3608453 14.9138717,11.5151094 14.6862491,10.2477887 C14.6307019,9.93986415 14.4531925,9.54258113 14.1440604,9.0336 C14.0359849,8.85609057 13.9110038,8.69367547 13.7775698,8.53850566 C14.3167396,8.16658113 14.9639849,7.95767547 15.6414189,7.95767547 M18.0619472,9.04929811 C18.1682113,9.17427925 18.2690415,9.30529811 18.3559849,9.44899623 C18.672966,9.96944906 18.7695698,10.2477887 18.7949283,10.3890717 C18.9682113,11.3532981 18.6681358,12.7353358 18.1331925,14.2496 C17.3706264,12.1442415 17.1116075,10.2640906 17.9242868,9.20748679 C17.9677585,9.15193962 18.0160604,9.10182642 18.0619472,9.04929811 M20.4999849,7.95767547 C20.560966,7.95767547 20.6231547,7.95888302 20.6853434,7.96250566 C21.7540226,8.0210717 22.6759849,8.56326038 23.2145509,9.44899623 C23.5309283,9.96944906 23.6281358,10.2477887 23.6534943,10.3890717 C24.0199849,12.4286189 22.2817208,16.3277887 20.6412679,19.4269585 C19.881117,18.1173736 19.1463245,16.7087698 18.5685132,15.3478642 C19.331683,13.3898264 19.8110792,11.5253736 19.5816453,10.2477887 C19.5267019,9.93986415 19.3491925,9.54258113 19.0394566,9.0336 C18.9277585,8.85005283 18.7973434,8.68220377 18.6584755,8.52220377 C19.1928151,8.15993962 19.8310038,7.95767547 20.4999849,7.95767547 M18.3535698,23.4311849 C17.7528151,22.5852981 17.0131925,21.476166 16.2620981,20.2354113 C16.9020981,19.0465811 17.5710792,17.711034 18.1452679,16.3797132 C18.7605132,17.7309585 19.4928906,19.0671094 20.1980981,20.2511094 C19.4367396,21.6416 18.7448151,22.7942038 18.3535698,23.4311849 M13.4780981,23.4589585 C12.8737208,22.6100528 12.1256453,21.4894491 11.3667019,20.2354113 C12.0127396,19.0339019 12.6901736,17.6826566 13.2679849,16.3374491 C13.8880604,17.7025811 14.6264755,19.055034 15.3395321,20.2511094 C14.5673057,21.6621283 13.8663245,22.8286189 13.4780981,23.4589585 M8.38647547,24.5185811 C8.45349434,24.5620528 8.52836226,24.5819774 8.60202264,24.5819774 C8.73424906,24.5819774 8.86224906,24.5167698 8.9389283,24.3978264 C9.03432453,24.2499019 9.89409811,22.8992604 10.9247396,21.0438642 C12.0320604,22.8322415 12.9721358,24.1291472 13.1562868,24.3797132 C13.1870792,24.4334491 13.2263245,24.4829585 13.2824755,24.5185811 C13.3549283,24.5566189 13.4159094,24.5717132 13.4774943,24.5765434 C13.5777208,24.5711094 13.6230038,24.5596377 13.667683,24.5397132 C13.7117585,24.5179774 13.7292679,24.5149585 13.7437585,24.5040906 C13.7980981,24.4642415 13.8349283,24.4117132 13.8620981,24.3549585 C14.0214943,24.1049962 14.8402113,22.8099019 15.8207396,21.0438642 C16.8042868,22.6336 17.6580226,23.836317 17.9659472,24.2619774 C17.9864755,24.3640151 18.0456453,24.4582038 18.1410415,24.5185811 C18.2074566,24.5620528 18.2823245,24.5819774 18.3559849,24.5819774 C18.4707019,24.5807698 18.5618717,24.5614491 18.6397585,24.5040906 C18.7309283,24.4364679 18.7840604,24.3374491 18.7979472,24.2329962 C19.067834,23.8049208 19.8098717,22.6088453 20.6793057,21.0438642 C21.8367396,22.9149585 22.8220981,24.2607698 22.9392302,24.4195623 C23.0696453,24.5970717 23.3202113,24.6351094 23.4983245,24.5040906 C23.6764377,24.3730717 23.7138717,24.1231094 23.5822491,23.9449962 C22.9344,23.0659019 22.0335698,21.7442415 21.1206642,20.2354113 C22.8752302,16.9732226 24.8646642,12.6097509 24.4402113,10.2477887 C24.3846642,9.93986415 24.2077585,9.54258113 23.8980226,9.0336 C23.2296453,7.93533585 22.0450415,7.23676981 20.7288151,7.16431698 C19.7549283,7.10876981 18.8178717,7.40280755 18.0673811,7.96250566 C17.4448906,7.49397736 16.6835321,7.20899623 15.8708528,7.16431698 C14.8903245,7.10876981 13.9448151,7.40643019 13.1900981,7.97518491 C12.5651925,7.49820377 11.7959849,7.20899623 10.9748528,7.16431698 C9.62783396,7.08824151 8.34421132,7.67148679 7.53696604,8.71963774 C5.66768302,11.1468075 8.19447547,16.4732981 10.4441358,20.2511094 C9.28972075,22.358883 8.29107925,23.9274868 8.26572075,23.9667321 C8.14677736,24.1526943 8.20111698,24.3996377 8.38647547,24.5185811 Z" id="Fill-2"></path>
        </g>
    </g>
</svg>