<?xml version="1.0" encoding="utf-8"?>
<!-- Generator: Adobe Illustrator 17.1.0, SVG Export Plug-In . SVG Version: 6.00 Build 0)  -->
<!DOCTYPE svg PUBLIC "-//W3C//DTD SVG 1.1//EN" "http://www.w3.org/Graphics/SVG/1.1/DTD/svg11.dtd">
<svg version="1.1" xmlns="http://www.w3.org/2000/svg" xmlns:xlink="http://www.w3.org/1999/xlink" x="0px" y="0px" width="96.1px"
	 height="30px" viewBox="0 0 96.1 30" enable-background="new 0 0 96.1 30" xml:space="preserve">
<g id="Layer_2">
</g>
<g id="Layer_1" display="none">
	<g display="inline">
		<g>
			<g>
				<polygon fill="#001E45" points="39.5,26.2 38,22.7 36.7,22.7 36.7,28.8 38,28.8 38,26.4 37.9,25.2 38,25.2 38.2,26 39,28 40,28 
					40.8,26 41.1,25.1 41.3,25.1 41.1,26.4 41.1,28.8 42.4,28.8 42.4,22.7 41,22.7 				"/>
				<polygon fill="#001E45" points="43.7,28.8 48,28.8 48,27.6 45.1,27.6 45.1,26.4 47.7,26.4 47.7,25.1 45.1,25.1 45.1,23.9 
					48,23.9 48,22.7 43.7,22.7 				"/>
				<polygon fill="#001E45" points="49,23.9 50.7,23.9 50.7,28.8 52,28.8 52,23.9 53.8,23.9 53.8,22.7 49,22.7 				"/>
				<path fill="#001E45" d="M55.9,22.7l-2.2,6.1h1.4l0.5-1.4h1.8l0.5,1.4h1.4l-2.2-6.1H55.9z M55.9,26.2l0.4-1.4l0.2-0.9h0.1
					l0.2,0.9l0.4,1.4H55.9z"/>
				<path fill="#001E45" d="M61.4,24.8c-0.1,1.6-0.1,2.9-1.4,2.8v1.3c1.9,0.1,2.4-1.4,2.5-3.1l0.1-1.9H64v5h1.3v-6.1h-4L61.4,24.8
					L61.4,24.8z"/>
				<path fill="#001E45" d="M68,24.8c-0.1,1.6-0.1,2.9-1.4,2.8v1.3c1.9,0.1,2.4-1.4,2.5-3.1l0.1-1.9h1.4v5h1.3v-6.1h-3.8L68,24.8z"
					/>
				<polygon fill="#001E45" points="76.4,28.8 77.7,28.8 77.7,23.9 80,23.9 80,28.8 81.2,28.8 81.2,22.7 76.4,22.7 				"/>
				<path fill="#001E45" d="M85,22.6c-1.3,0-2.5,0.6-2.5,2.1V27c0,1.4,1.3,2.1,2.5,2.1s2.5-0.7,2.5-2.1v-2.3
					C87.5,23.2,86.3,22.6,85,22.6z M86.2,26.8c0,0.5-0.6,0.8-1.3,0.8c-0.6,0-1.3-0.3-1.3-0.8v-2.3c0-0.5,0.6-0.9,1.3-0.9
					s1.3,0.3,1.3,0.9V26.8z"/>
				<path fill="#001E45" d="M91,27.7c-0.5,0-1-0.3-1-0.8v-2.3c0-0.5,0.5-0.8,1.1-0.8c0.5,0,1,0.2,1.2,0.6l1-0.5
					c-0.5-0.9-1.4-1.4-2.2-1.4c-1.2,0-2.4,0.7-2.4,2.1v2.3c0,1.4,1.3,2.1,2.4,2.1c0.8,0,1.6-0.5,2.2-1.3l-1.1-0.6
					C91.9,27.5,91.4,27.7,91,27.7z"/>
				<polygon fill="#001E45" points="96.8,24.5 96.4,25.4 96.3,25.4 96,24.5 95.2,22.7 93.7,22.7 95.7,26.8 94.8,28.8 96.2,28.8 
					98.9,22.7 97.6,22.7 				"/>
				<path fill="#001E45" d="M104.4,22.7h-3.9l-0.2,2.1c-0.1,1.7-0.1,2.8-1.1,2.9h-0.1V30h1.3v-1.2h3.2V30h1.3v-2.3h-0.5L104.4,22.7
					L104.4,22.7z M103,27.7h-1.9c0.2-0.5,0.4-1.2,0.4-1.9l0.1-1.9h1.4V27.7L103,27.7z"/>
				<path fill="#001E45" d="M107.9,22.7l-2.2,6.1h1.4l0.5-1.4h1.8l0.5,1.4h1.4l-2.2-6.1H107.9z M108,26.2l0.4-1.4l0.2-0.9h0.1
					l0.2,0.9l0.4,1.4H108z"/>
			</g>
			<path fill="#001E45" d="M41.8,19.8h-5.2V0.2h5.2v7.4h5.9V0.2h5.2v19.6h-5.2v-7.4h-5.9V19.8z M88.5,9.3c2.8,1.4,3.2,3.9,2.9,5.4
				c-0.5,3.2-2.7,5.1-7.2,5.1h-8.3V0.2H84c3.9,0,6.8,2.3,6.6,6C90.5,7,89.9,8.6,88.5,9.3z M83.9,7.9c2.5,0,2.6-3.5,0-3.5h-3v3.5
				H83.9z M83.9,15.5c3.1,0,3.1-4.1,0-4.1h-3v4.1H83.9z M111.3,19.8h-5.5l-1.4-4H99l-1.3,4h-5.5l7.1-19.6h4.7L111.3,19.8z
				 M103.2,11.5l-1.4-5.8h-0.2l-1.5,5.8C100,11.5,103.2,11.5,103.2,11.5z M71.4,15.1H62v-2.7h6.5c0.8,0,1.6-0.5,1.9-1.3l1.1-2.9
				c0.1-0.2-0.1-0.5-0.3-0.5H62v-3h6.5c0.9,0,1.6-0.5,2-1.4l1.2-3c0.1-0.2-0.1-0.5-0.3-0.5H56.9v0.3l0,0v19.4l0,0l0,0h11.8
				c0.8,0,1.6-0.5,1.9-1.3l1.1-2.9C71.7,15.3,71.7,15.1,71.4,15.1z"/>
		</g>
		<g>
			
				<linearGradient id="SVGID_1_" gradientUnits="userSpaceOnUse" x1="0" y1="11.1" x2="32.8" y2="11.1" gradientTransform="matrix(1 0 0 1 0 -7)">
				<stop  offset="0" style="stop-color:#C23240"/>
				<stop  offset="0.4733" style="stop-color:#E03F4C"/>
				<stop  offset="0.734" style="stop-color:#EF4652"/>
			</linearGradient>
			<polygon fill="url(#SVGID_1_)" points="32.8,0.9 32.8,0.8 32.8,0.7 32.8,0.7 32.7,0.6 32.7,0.5 32.7,0.5 32.7,0.5 32.6,0.4 
				32.6,0.4 32.5,0.3 32.4,0.3 32.4,0.2 32.3,0.2 32.3,0.2 32.3,0.2 0.5,0.2 0.5,0.2 0.4,0.2 0.4,0.2 0.3,0.3 0.3,0.3 0.2,0.4 
				0.2,0.4 0.1,0.5 0.1,0.5 0,0.5 0,0.6 0,0.7 0,0.7 0,0.8 0,0.9 0,1 0,1.1 1.4,5.3 1.4,5.5 1.4,5.7 1.5,5.9 1.6,6.1 1.7,6.1 
				1.8,6.3 1.9,6.4 2,6.6 2.1,6.7 2.2,6.9 2.3,7 2.3,7 2.5,7.1 2.6,7.2 2.7,7.4 2.9,7.4 3,7.5 3.2,7.6 3.3,7.7 3.4,7.8 3.5,7.8 
				3.7,7.9 3.9,7.9 4,7.9 4.2,8 4.2,8 4.4,8 28.4,8 28.5,8 28.6,8 28.7,7.9 28.9,7.9 29.1,7.9 29.2,7.8 29.4,7.8 29.5,7.7 29.6,7.6 
				29.7,7.5 29.9,7.4 30,7.4 30.2,7.2 30.3,7.1 30.4,7 30.5,7 30.6,6.9 30.7,6.7 30.8,6.6 30.9,6.4 31,6.3 31.1,6.1 31.2,6.1 
				31.3,5.9 31.3,5.7 31.4,5.5 31.4,5.3 			"/>
			
				<linearGradient id="SVGID_2_" gradientUnits="userSpaceOnUse" x1="7.1326" y1="27.8674" x2="25.6096" y2="9.3904" gradientTransform="matrix(1 0 0 1 0 -7)">
				<stop  offset="0" style="stop-color:#BC303E"/>
				<stop  offset="0.1436" style="stop-color:#CE3645"/>
				<stop  offset="0.3499" style="stop-color:#E43D4C"/>
				<stop  offset="0.4681" style="stop-color:#EF4050"/>
				<stop  offset="1" style="stop-color:#EF4652"/>
			</linearGradient>
			<polygon fill="url(#SVGID_2_)" points="32.8,9.9 32.8,9.8 32.8,9.8 32.8,9.7 32.7,9.7 32.7,9.6 32.7,9.5 32.7,9.5 32.6,9.4 
				32.6,9.3 32.5,9.3 32.4,9.3 32.4,9.2 32.3,9.2 32.3,9.2 32.3,9.2 0.5,9.2 0.5,9.2 0.4,9.2 0.4,9.2 0.3,9.3 0.3,9.3 0.2,9.3 
				0.2,9.4 0.1,9.5 0.1,9.5 0,9.6 0,9.7 0,9.7 0,9.8 0,9.8 0,9.9 0,10 0,10 1.4,14.4 1.4,14.5 1.4,14.7 1.5,14.9 1.6,15 1.7,15.2 
				1.8,15.4 1.9,15.5 2,15.6 2.1,15.7 2.2,15.9 2.3,16 2.3,16.1 2.5,16.2 2.6,16.3 2.7,16.4 2.9,16.4 3,16.5 3.2,16.6 3.3,16.7 
				3.4,16.7 3.5,16.8 3.7,16.9 3.9,16.9 4,16.9 4.2,16.9 4.2,17 4.4,17 28.4,17 28.5,17 28.6,16.9 28.7,16.9 28.9,16.9 29.1,16.9 
				29.2,16.8 29.4,16.7 29.5,16.7 29.6,16.6 29.7,16.5 29.9,16.4 30,16.4 30.2,16.3 30.3,16.2 30.4,16.1 30.5,16 30.6,15.9 
				30.7,15.7 30.8,15.6 30.9,15.5 31,15.4 31.1,15.2 31.2,15 31.3,14.9 31.3,14.7 31.4,14.5 31.4,14.4 			"/>
			
				<linearGradient id="SVGID_3_" gradientUnits="userSpaceOnUse" x1="11.0574" y1="36.8933" x2="20.5773" y2="18.989" gradientTransform="matrix(1 0 0 1 0 -7)">
				<stop  offset="0" style="stop-color:#B22D3A"/>
				<stop  offset="0.1475" style="stop-color:#BA303D"/>
				<stop  offset="0.3364" style="stop-color:#C23240"/>
				<stop  offset="0.5026" style="stop-color:#D13746"/>
				<stop  offset="0.7645" style="stop-color:#E53D4D"/>
				<stop  offset="0.9202" style="stop-color:#EF4050"/>
			</linearGradient>
			<polygon fill="url(#SVGID_3_)" points="32.8,19 32.8,18.9 32.8,18.8 32.8,18.8 32.7,18.7 32.7,18.6 32.7,18.5 32.7,18.5 
				32.6,18.4 32.6,18.4 32.5,18.3 32.4,18.3 32.4,18.3 32.3,18.3 32.3,18.3 32.3,18.3 0.5,18.3 0.5,18.3 0.4,18.3 0.4,18.3 
				0.3,18.3 0.3,18.3 0.2,18.4 0.2,18.4 0.1,18.5 0.1,18.5 0,18.6 0,18.7 0,18.8 0,18.8 0,18.9 0,19 0,19.1 0,19.2 1.4,23.5 
				1.4,23.6 1.4,23.8 1.5,23.9 1.6,24.1 1.7,24.2 1.8,24.4 1.9,24.5 2,24.7 2.1,24.8 2.2,24.9 2.3,25 2.3,25.1 2.5,25.2 2.6,25.4 
				2.7,25.5 2.9,25.6 3,25.6 3.2,25.7 3.3,25.8 3.4,25.8 3.5,25.8 3.7,25.9 3.9,25.9 4,25.9 4.2,26 4.2,26 4.4,26 28.4,26 28.5,26 
				28.6,26 28.7,25.9 28.9,25.9 29.1,25.9 29.2,25.8 29.4,25.8 29.5,25.8 29.6,25.7 29.7,25.6 29.9,25.6 30,25.5 30.2,25.4 
				30.3,25.2 30.4,25.1 30.5,25 30.6,24.9 30.7,24.8 30.8,24.7 30.9,24.5 31,24.4 31.1,24.2 31.2,24.1 31.3,23.9 31.3,23.8 
				31.4,23.6 31.4,23.5 			"/>
		</g>
	</g>
</g>
<g id="Layer_3">
	<rect x="0.1" y="0.2" fill="#E2000B" width="96" height="29.8"/>
	<g>
		<g>
			<path fill="#FFFFFF" d="M13.4,24.4H9.5l3.3-15.6H7.3l0.7-3.1h14.7L22,8.8h-5.4L13.4,24.4z"/>
			<path fill="#FFFFFF" d="M33.4,18.8h-9.2c0,0.1,0,0.3,0,0.3c0,0.9,0.3,1.6,0.8,2.2c0.5,0.6,1.1,0.8,1.9,0.8c1.2,0,2.2-0.6,2.8-1.9
				l3.3,0.5c-0.6,1.3-1.5,2.3-2.6,3c-1.1,0.7-2.3,1-3.6,1c-1.8,0-3.3-0.6-4.4-1.7c-1.1-1.2-1.7-2.7-1.7-4.6c0-1.9,0.5-3.5,1.5-5
				c1.4-2,3.4-2.9,6-2.9c1.7,0,3,0.5,4,1.5c1,1,1.5,2.5,1.5,4.3C33.6,17.3,33.6,18.1,33.4,18.8z M30.3,16.6c0-0.2,0-0.3,0-0.4
				c0-1-0.2-1.8-0.7-2.3c-0.5-0.5-1.1-0.8-1.8-0.8c-0.8,0-1.4,0.3-2,0.9c-0.6,0.6-1,1.4-1.2,2.5H30.3z"/>
			<path fill="#FFFFFF" d="M34.3,20.6l3.5-0.6c0.3,0.7,0.7,1.3,1.2,1.6c0.5,0.3,1.1,0.5,1.9,0.5c0.8,0,1.5-0.2,2-0.6
				c0.3-0.3,0.5-0.6,0.5-0.9c0-0.2-0.1-0.5-0.3-0.7c-0.2-0.2-0.7-0.4-1.5-0.7c-2.2-0.7-3.6-1.3-4.1-1.7c-0.8-0.7-1.2-1.5-1.2-2.6
				c0-1.1,0.4-2,1.2-2.8c1.1-1.1,2.8-1.6,5-1.6c1.7,0,3.1,0.3,4,1c0.9,0.6,1.5,1.5,1.7,2.6l-3.4,0.6c-0.2-0.5-0.5-0.9-0.9-1.1
				c-0.5-0.3-1.2-0.5-2-0.5c-0.8,0-1.3,0.1-1.7,0.4c-0.3,0.3-0.5,0.5-0.5,0.9c0,0.3,0.2,0.6,0.5,0.8c0.2,0.1,0.9,0.4,2.1,0.7
				c1.8,0.5,3,1,3.6,1.5c0.9,0.7,1.3,1.6,1.3,2.6c0,1.3-0.5,2.4-1.6,3.3c-1.1,0.9-2.6,1.4-4.6,1.4c-2,0-3.5-0.4-4.5-1.1
				C35.4,22.9,34.6,21.9,34.3,20.6z"/>
			<path fill="#FFFFFF" d="M49.8,18.8c0-2.5,0.7-4.5,2.1-6c1.4-1.5,3.3-2.2,5.6-2.2c2,0,3.6,0.6,4.7,1.7c1.1,1.1,1.7,2.6,1.7,4.4
				c0,2.2-0.7,4.1-2.1,5.7c-1.4,1.6-3.3,2.4-5.6,2.4c-1.3,0-2.4-0.3-3.4-0.8c-1-0.5-1.7-1.2-2.2-2.2C50,20.9,49.8,19.9,49.8,18.8z
				 M60.2,16.2c0-0.9-0.3-1.6-0.8-2.1c-0.5-0.5-1.2-0.8-2-0.8c-0.8,0-1.5,0.2-2.1,0.7c-0.6,0.5-1.1,1.2-1.4,2.1
				c-0.3,0.9-0.5,1.8-0.5,2.6c0,1,0.3,1.7,0.8,2.3c0.5,0.6,1.2,0.9,2,0.9c1,0,1.8-0.4,2.5-1.3C59.7,19.4,60.2,17.9,60.2,16.2z"/>
			<path fill="#FFFFFF" d="M67.8,10.9h3.4l-0.5,2.6c1.3-2,2.7-2.9,4.1-2.9c0.5,0,1.1,0.1,1.7,0.4l-1.4,3c-0.3-0.1-0.7-0.2-1.1-0.2
				c-0.6,0-1.3,0.2-1.9,0.7c-0.7,0.5-1.2,1.1-1.5,1.9c-0.4,0.8-0.7,2.1-1.1,3.8l-0.9,4.2H65L67.8,10.9z"/>
			<path fill="#FFFFFF" d="M75.9,18.8c0-2.5,0.7-4.5,2.1-6c1.4-1.5,3.3-2.2,5.6-2.2c2,0,3.6,0.6,4.7,1.7c1.1,1.1,1.7,2.6,1.7,4.4
				c0,2.2-0.7,4.1-2.1,5.7c-1.4,1.6-3.3,2.4-5.6,2.4c-1.3,0-2.4-0.3-3.4-0.8s-1.7-1.2-2.2-2.2C76.2,20.9,75.9,19.9,75.9,18.8z
				 M86.4,16.2c0-0.9-0.3-1.6-0.8-2.1c-0.5-0.5-1.2-0.8-2-0.8c-0.8,0-1.5,0.2-2.1,0.7c-0.6,0.5-1.1,1.2-1.4,2.1
				c-0.3,0.9-0.5,1.8-0.5,2.6c0,1,0.3,1.7,0.8,2.3c0.5,0.6,1.2,0.9,2,0.9c1,0,1.8-0.4,2.5-1.3C85.9,19.4,86.4,17.9,86.4,16.2z"/>
		</g>
		<polygon fill="#FFFFFF" points="61.8,4.5 60.4,9 61.8,9.4 66,4.5 		"/>
	</g>
</g>
</svg>
