<?xml version="1.0" encoding="utf-8"?>
<!-- Generator: Adobe Illustrator 17.1.0, SVG Export Plug-In . SVG Version: 6.00 Build 0)  -->
<!DOCTYPE svg PUBLIC "-//W3C//DTD SVG 1.1//EN" "http://www.w3.org/Graphics/SVG/1.1/DTD/svg11.dtd">
<svg version="1.1" id="Layer_1" xmlns="http://www.w3.org/2000/svg" xmlns:xlink="http://www.w3.org/1999/xlink" x="0px" y="0px"
	 width="111.3px" height="30px" viewBox="0 6.9 111.3 30" enable-background="new 0 6.9 111.3 30" xml:space="preserve">
<g>
	<g>
		<g>
			<polygon fill="#001E45" points="39.5,33.1 38,29.6 36.7,29.6 36.7,35.7 38,35.7 38,33.3 37.9,32.1 38,32.1 38.2,32.9 39,34.9 
				40,34.9 40.8,32.9 41.1,32 41.3,32 41.1,33.3 41.1,35.7 42.4,35.7 42.4,29.6 41,29.6 			"/>
			<polygon fill="#001E45" points="43.7,35.7 48,35.7 48,34.5 45.1,34.5 45.1,33.3 47.7,33.3 47.7,32 45.1,32 45.1,30.8 48,30.8 
				48,29.6 43.7,29.6 			"/>
			<polygon fill="#001E45" points="49,30.8 50.7,30.8 50.7,35.7 52,35.7 52,30.8 53.8,30.8 53.8,29.6 49,29.6 			"/>
			<path fill="#001E45" d="M55.9,29.6l-2.2,6.1h1.4l0.5-1.4h1.8l0.5,1.4h1.4l-2.2-6.1H55.9z M55.9,33.1l0.4-1.4l0.2-0.9h0.1l0.2,0.9
				l0.4,1.4H55.9z"/>
			<path fill="#001E45" d="M61.4,31.7c-0.1,1.6-0.1,2.9-1.4,2.8v1.3c1.9,0.1,2.4-1.4,2.5-3.1l0.1-1.9h1.4v5h1.3v-6.1h-4V31.7z"/>
			<path fill="#001E45" d="M68,31.7c-0.1,1.6-0.1,2.9-1.4,2.8v1.3c1.9,0.1,2.4-1.4,2.5-3.1l0.1-1.9h1.4v5h1.3v-6.1h-3.8L68,31.7z"/>
			<polygon fill="#001E45" points="76.4,35.7 77.7,35.7 77.7,30.8 80,30.8 80,35.7 81.2,35.7 81.2,29.6 76.4,29.6 			"/>
			<path fill="#001E45" d="M85,29.5c-1.3,0-2.5,0.6-2.5,2.1v2.3c0,1.4,1.3,2.1,2.5,2.1s2.5-0.7,2.5-2.1v-2.3
				C87.5,30.1,86.3,29.5,85,29.5z M86.2,33.7c0,0.5-0.6,0.8-1.3,0.8c-0.6,0-1.3-0.3-1.3-0.8v-2.3c0-0.5,0.6-0.9,1.3-0.9
				s1.3,0.3,1.3,0.9V33.7z"/>
			<path fill="#001E45" d="M91,34.6c-0.5,0-1-0.3-1-0.8v-2.3c0-0.5,0.5-0.8,1.1-0.8c0.5,0,1,0.2,1.2,0.6l1-0.5
				c-0.5-0.9-1.4-1.4-2.2-1.4c-1.2,0-2.4,0.7-2.4,2.1v2.3c0,1.4,1.3,2.1,2.4,2.1c0.8,0,1.6-0.5,2.2-1.3l-1.1-0.6
				C91.9,34.4,91.4,34.6,91,34.6z"/>
			<polygon fill="#001E45" points="96.8,31.4 96.4,32.3 96.3,32.3 96,31.4 95.2,29.6 93.7,29.6 95.7,33.7 94.8,35.7 96.2,35.7 
				98.9,29.6 97.6,29.6 			"/>
			<path fill="#001E45" d="M104.4,29.6h-3.9l-0.2,2.1c-0.1,1.7-0.1,2.8-1.1,2.9h-0.1v2.3h1.3v-1.2h3.2v1.2h1.3v-2.3h-0.5L104.4,29.6
				L104.4,29.6z M103,34.6h-1.9c0.2-0.5,0.4-1.2,0.4-1.9l0.1-1.9h1.4L103,34.6L103,34.6z"/>
			<path fill="#001E45" d="M107.9,29.6l-2.2,6.1h1.4l0.5-1.4h1.8l0.5,1.4h1.4l-2.2-6.1H107.9z M108,33.1l0.4-1.4l0.2-0.9h0.1
				l0.2,0.9l0.4,1.4H108z"/>
		</g>
		<path fill="#001E45" d="M41.8,26.7h-5.2V7.1h5.2v7.4h5.9V7.1h5.2v19.6h-5.2v-7.4h-5.9V26.7z M88.5,16.2c2.8,1.4,3.2,3.9,2.9,5.4
			c-0.5,3.2-2.7,5.1-7.2,5.1h-8.3V7.1H84c3.9,0,6.8,2.3,6.6,6C90.5,13.9,89.9,15.5,88.5,16.2z M83.9,14.8c2.5,0,2.6-3.5,0-3.5h-3
			v3.5H83.9z M83.9,22.4c3.1,0,3.1-4.1,0-4.1h-3v4.1H83.9z M111.3,26.7h-5.5l-1.4-4H99l-1.3,4h-5.5l7.1-19.6h4.7L111.3,26.7z
			 M103.2,18.4l-1.4-5.8h-0.2l-1.5,5.8C100,18.4,103.2,18.4,103.2,18.4z M71.4,22H62v-2.7h6.5c0.8,0,1.6-0.5,1.9-1.3l1.1-2.9
			c0.1-0.2-0.1-0.5-0.3-0.5H62v-3h6.5c0.9,0,1.6-0.5,2-1.4l1.2-3c0.1-0.2-0.1-0.5-0.3-0.5H56.9V7l0,0v19.4l0,0l0,0h11.8
			c0.8,0,1.6-0.5,1.9-1.3l1.1-2.9C71.7,22.2,71.7,22,71.4,22z"/>
	</g>
	<g>
		
			<linearGradient id="SVGID_1_" gradientUnits="userSpaceOnUse" x1="0" y1="27.0337" x2="32.8012" y2="27.0337" gradientTransform="matrix(1 0 0 -1 0 38)">
			<stop  offset="0" style="stop-color:#C23240"/>
			<stop  offset="0.4733" style="stop-color:#E03F4C"/>
			<stop  offset="0.734" style="stop-color:#EF4652"/>
		</linearGradient>
		<polygon fill="url(#SVGID_1_)" points="32.8,7.8 32.8,7.7 32.8,7.6 32.8,7.6 32.7,7.5 32.7,7.4 32.7,7.4 32.7,7.4 32.6,7.3 
			32.6,7.3 32.5,7.2 32.4,7.2 32.4,7.1 32.3,7.1 32.3,7.1 32.3,7.1 0.5,7.1 0.5,7.1 0.4,7.1 0.4,7.1 0.3,7.2 0.3,7.2 0.2,7.3 
			0.2,7.3 0.1,7.4 0.1,7.4 0,7.4 0,7.5 0,7.6 0,7.6 0,7.7 0,7.8 0,7.9 0,8 1.4,12.2 1.4,12.4 1.4,12.6 1.5,12.8 1.6,13 1.7,13 
			1.8,13.2 1.9,13.3 2,13.5 2.1,13.6 2.2,13.8 2.3,13.9 2.3,13.9 2.5,14 2.6,14.1 2.7,14.3 2.9,14.3 3,14.4 3.2,14.5 3.3,14.6 
			3.4,14.7 3.5,14.7 3.7,14.8 3.9,14.8 4,14.8 4.2,14.9 4.2,14.9 4.4,14.9 28.4,14.9 28.5,14.9 28.6,14.9 28.7,14.8 28.9,14.8 
			29.1,14.8 29.2,14.7 29.4,14.7 29.5,14.6 29.6,14.5 29.7,14.4 29.9,14.3 30,14.3 30.2,14.1 30.3,14 30.4,13.9 30.5,13.9 
			30.6,13.8 30.7,13.6 30.8,13.5 30.9,13.3 31,13.2 31.1,13 31.2,13 31.3,12.8 31.3,12.6 31.4,12.4 31.4,12.2 		"/>
		
			<linearGradient id="SVGID_2_" gradientUnits="userSpaceOnUse" x1="7.1386" y1="10.2265" x2="25.6156" y2="28.7035" gradientTransform="matrix(1 0 0 -1 0 38)">
			<stop  offset="0" style="stop-color:#BC303E"/>
			<stop  offset="0.1436" style="stop-color:#CE3645"/>
			<stop  offset="0.3499" style="stop-color:#E43D4C"/>
			<stop  offset="0.4681" style="stop-color:#EF4050"/>
			<stop  offset="1" style="stop-color:#EF4652"/>
		</linearGradient>
		<polygon fill="url(#SVGID_2_)" points="32.8,16.8 32.8,16.7 32.8,16.7 32.8,16.6 32.7,16.6 32.7,16.5 32.7,16.4 32.7,16.4 
			32.6,16.3 32.6,16.2 32.5,16.2 32.4,16.2 32.4,16.1 32.3,16.1 32.3,16.1 32.3,16.1 0.5,16.1 0.5,16.1 0.4,16.1 0.4,16.1 0.3,16.2 
			0.3,16.2 0.2,16.2 0.2,16.3 0.1,16.4 0.1,16.4 0,16.5 0,16.6 0,16.6 0,16.7 0,16.7 0,16.8 0,16.9 0,16.9 1.4,21.3 1.4,21.4 
			1.4,21.6 1.5,21.8 1.6,21.9 1.7,22.1 1.8,22.3 1.9,22.4 2,22.5 2.1,22.6 2.2,22.8 2.3,22.9 2.3,23 2.5,23.1 2.6,23.2 2.7,23.3 
			2.9,23.3 3,23.4 3.2,23.5 3.3,23.6 3.4,23.6 3.5,23.7 3.7,23.8 3.9,23.8 4,23.8 4.2,23.8 4.2,23.9 4.4,23.9 28.4,23.9 28.5,23.9 
			28.6,23.8 28.7,23.8 28.9,23.8 29.1,23.8 29.2,23.7 29.4,23.6 29.5,23.6 29.6,23.5 29.7,23.4 29.9,23.3 30,23.3 30.2,23.2 
			30.3,23.1 30.4,23 30.5,22.9 30.6,22.8 30.7,22.6 30.8,22.5 30.9,22.4 31,22.3 31.1,22.1 31.2,21.9 31.3,21.8 31.3,21.6 
			31.4,21.4 31.4,21.3 		"/>
		
			<linearGradient id="SVGID_3_" gradientUnits="userSpaceOnUse" x1="11.0561" y1="1.2074" x2="20.576" y2="19.1117" gradientTransform="matrix(1 0 0 -1 0 38)">
			<stop  offset="0" style="stop-color:#B22D3A"/>
			<stop  offset="0.1475" style="stop-color:#BA303D"/>
			<stop  offset="0.3364" style="stop-color:#C23240"/>
			<stop  offset="0.5026" style="stop-color:#D13746"/>
			<stop  offset="0.7645" style="stop-color:#E53D4D"/>
			<stop  offset="0.9202" style="stop-color:#EF4050"/>
		</linearGradient>
		<polygon fill="url(#SVGID_3_)" points="32.8,25.9 32.8,25.8 32.8,25.7 32.8,25.7 32.7,25.6 32.7,25.5 32.7,25.4 32.7,25.4 
			32.6,25.3 32.6,25.3 32.5,25.2 32.4,25.2 32.4,25.2 32.3,25.2 32.3,25.2 32.3,25.2 0.5,25.2 0.5,25.2 0.4,25.2 0.4,25.2 0.3,25.2 
			0.3,25.2 0.2,25.3 0.2,25.3 0.1,25.4 0.1,25.4 0,25.5 0,25.6 0,25.7 0,25.7 0,25.8 0,25.9 0,26 0,26.1 1.4,30.4 1.4,30.5 
			1.4,30.7 1.5,30.8 1.6,31 1.7,31.1 1.8,31.3 1.9,31.4 2,31.6 2.1,31.7 2.2,31.8 2.3,31.9 2.3,32 2.5,32.1 2.6,32.3 2.7,32.4 
			2.9,32.5 3,32.5 3.2,32.6 3.3,32.7 3.4,32.7 3.5,32.7 3.7,32.8 3.9,32.8 4,32.8 4.2,32.9 4.2,32.9 4.4,32.9 28.4,32.9 28.5,32.9 
			28.6,32.9 28.7,32.8 28.9,32.8 29.1,32.8 29.2,32.7 29.4,32.7 29.5,32.7 29.6,32.6 29.7,32.5 29.9,32.5 30,32.4 30.2,32.3 
			30.3,32.1 30.4,32 30.5,31.9 30.6,31.8 30.7,31.7 30.8,31.6 30.9,31.4 31,31.3 31.1,31.1 31.2,31 31.3,30.8 31.3,30.7 31.4,30.5 
			31.4,30.4 		"/>
	</g>
</g>
</svg>
