<?xml version="1.0" encoding="UTF-8"?>
<svg width="98px" height="24px" viewBox="0 0 98 24" version="1.1" xmlns="http://www.w3.org/2000/svg" xmlns:xlink="http://www.w3.org/1999/xlink">
    <!-- Generator: sketchtool 48.2 (47327) - http://www.bohemiancoding.com/sketch -->
    <title>499F1CC9-3332-42D9-9078-DA1D9BCCE0DD</title>
    <desc>Created with sketchtool.</desc>
    <defs></defs>
    <g id="Icons" stroke="none" stroke-width="1" fill="none" fill-rule="evenodd">
        <g id="Logos/nmp_ru_light">
            <g id="Group-3" transform="translate(0.000000, 2.000000)">
                <g id="Group" transform="translate(34.000000, 0.000000)" fill="#1F2A44">
                    <polyline id="Fill-55" points="45 0 45 19.6389041 51.109589 19.6389041 51.109589 5.40712329 57.1205479 5.40712329 57.1205479 19.6389041 63.230137 19.6389041 63.230137 0 45 0"></polyline>
                    <polyline id="Fill-56" points="12.0424658 7.09178082 6.11013699 7.09178082 6.11013699 0 0 0 0 19.6389041 6.11013699 19.6389041 6.11013699 12.5334247 12.0424658 12.5334247 12.0424658 19.6389041 18.1526027 19.6389041 18.1526027 0 12.0424658 0 12.0424658 7.09178082"></polyline>
                    <polyline id="Fill-57" points="31.3958904 7.38575342 26.110137 0 20 0 20 19.6150685 26.0975342 19.6150685 26.0975342 9.34328767 31.3326027 16.1219178 36.5747945 9.32520548 36.5747945 19.6150685 42.6860274 19.6150685 42.6860274 0 36.5747945 0 31.3958904 7.38575342"></polyline>
                </g>
                <polyline id="Fill-58" fill="#F4364C" points="29.9960939 0.551232877 30 0.495890411 29.9972099 0.440547945 29.9882817 0.385753425 29.9732153 0.33260274 29.9520107 0.28109589 29.924947 0.232328767 29.8925821 0.187123288 29.8551951 0.145479452 29.813344 0.108493151 29.7675868 0.0761643836 29.7182024 0.0493150685 29.666028 0.0279452055 29.6119006 0.0123287671 29.5563781 0.00301369863 29.5000186 0 0.4999814 0 0.443621889 0.00301369863 0.388099401 0.0123287671 0.333692943 0.0279452055 0.281797552 0.0493150685 0.232413229 0.0761643836 0.186376995 0.108493151 0.144525873 0.145479452 0.107138871 0.187123288 0.0747740039 0.232328767 0.0479892861 0.28109589 0.0267847178 0.33260274 0.0117183141 0.385753425 0.0025110673 0.440547945 0 0.495890411 0.00362709721 0.551232877 0.0139503739 0.605753425 0.0301328076 0.65890411 1.25134854 3.95342466 1.30045385 4.07753425 1.35541833 4.19945205 1.41596295 4.31863014 1.48208772 4.43506849 1.55323463 4.54849315 1.62968268 4.65890411 1.71115286 4.76547945 1.79736617 4.86821918 1.88832261 4.96739726 1.98374316 5.06219178 2.08334883 5.15287671 2.18686061 5.23863014 2.29455749 5.32 2.40560247 5.39643836 2.52027454 5.46794521 2.6380157 5.53424658 2.75882594 5.59506849 2.88214724 5.65068493 3.00797961 5.70082192 3.13604405 5.74520548 3.26578252 5.78383562 3.39747405 5.81643836 3.53028161 5.84356164 3.6642052 5.86465753 3.79924482 5.87945205 3.93456345 5.88876712 4.07044009 5.89178082 25.9295599 5.89178082 26.0651575 5.88876712 26.2007552 5.87945205 26.3355158 5.86465753 26.4697184 5.84356164 26.6025259 5.81643836 26.7342175 5.78383562 26.863956 5.74520548 26.9920204 5.70082192 27.1178528 5.65068493 27.2411741 5.59506849 27.3619843 5.53424658 27.4797255 5.46794521 27.5943975 5.39643836 27.7054425 5.32 27.8128604 5.23863014 27.9166512 5.15287671 28.0162568 5.06219178 28.1116774 4.96739726 28.2026338 4.86821918 28.2888471 4.76547945 28.3703173 4.65890411 28.4467654 4.54849315 28.5179123 4.43506849 28.583758 4.31863014 28.6443027 4.19945205 28.6992671 4.07753425 28.7486515 3.95342466 29.9960939 0.551232877"></polyline>
                <polyline id="Fill-59" fill="#F4364C" points="29.9960939 7.55123288 30 7.49589041 29.9972099 7.44054795 29.9882817 7.38575342 29.9732153 7.33232877 29.9520107 7.28109589 29.924947 7.23232877 29.8925821 7.18684932 29.8551951 7.14547945 29.813344 7.10821918 29.7675868 7.07616438 29.7182024 7.0490411 29.666028 7.02767123 29.6119006 7.01232877 29.5563781 7.0030137 29.5000186 7 0.4999814 7 0.443621889 7.0030137 0.388099401 7.01232877 0.333692943 7.02767123 0.281797552 7.0490411 0.232413229 7.07616438 0.186376995 7.10821918 0.144525873 7.14547945 0.107138871 7.18684932 0.0747740039 7.23232877 0.0479892861 7.28109589 0.0267847178 7.33232877 0.0117183141 7.38575342 0.0025110673 7.44054795 0 7.49589041 0.00362709721 7.55123288 0.0139503739 7.60575342 0.0301328076 7.65863014 1.25134854 10.9531507 1.30045385 11.0775342 1.35541833 11.1991781 1.41596295 11.3186301 1.48208772 11.4350685 1.55323463 11.5484932 1.62968268 11.6586301 1.71115286 11.7654795 1.79736617 11.8682192 1.88832261 11.9673973 1.98374316 12.0621918 2.08334883 12.1526027 2.18686061 12.2386301 2.29455749 12.32 2.40560247 12.3964384 2.52027454 12.4679452 2.6380157 12.5342466 2.75882594 12.5950685 2.88214724 12.6506849 3.00797961 12.7005479 3.13604405 12.7449315 3.26578252 12.7835616 3.39747405 12.8164384 3.53028161 12.8432877 3.6642052 12.8643836 3.79924482 12.8794521 3.93456345 12.8884932 4.07044009 12.8915068 25.9295599 12.8915068 26.0651575 12.8884932 26.2007552 12.8794521 26.3355158 12.8643836 26.4697184 12.8432877 26.6025259 12.8164384 26.7342175 12.7835616 26.863956 12.7449315 26.9920204 12.7005479 27.1178528 12.6506849 27.2411741 12.5950685 27.3619843 12.5342466 27.4797255 12.4679452 27.5943975 12.3964384 27.7054425 12.32 27.8128604 12.2386301 27.9166512 12.1526027 28.0162568 12.0621918 28.1116774 11.9673973 28.2026338 11.8682192 28.2888471 11.7654795 28.3703173 11.6586301 28.4467654 11.5484932 28.5179123 11.4350685 28.583758 11.3186301 28.6443027 11.1991781 28.6992671 11.0775342 28.7486515 10.9531507 29.9960939 7.55123288"></polyline>
                <polyline id="Fill-60" fill="#F4364C" points="29.9960939 14.5512329 30 14.4958904 29.9972099 14.4405479 29.9882817 14.3857534 29.9732153 14.3323288 29.9520107 14.2810959 29.924947 14.2323288 29.8925821 14.1868493 29.8551951 14.1454795 29.813344 14.1082192 29.7675868 14.0761644 29.7182024 14.0490411 29.666028 14.0279452 29.6119006 14.0123288 29.5563781 14.0030137 29.5000186 14 0.4999814 14 0.443621889 14.0030137 0.388099401 14.0123288 0.333692943 14.0279452 0.281797552 14.0490411 0.232413229 14.0761644 0.186376995 14.1082192 0.144525873 14.1454795 0.107138871 14.1868493 0.0747740039 14.2323288 0.0479892861 14.2810959 0.0267847178 14.3323288 0.0117183141 14.3857534 0.0025110673 14.4405479 0 14.4958904 0.00362709721 14.5512329 0.0139503739 14.6057534 0.0301328076 14.6589041 1.25134854 17.9531507 1.30045385 18.0775342 1.35541833 18.1991781 1.41596295 18.3186301 1.48208772 18.4350685 1.55323463 18.5484932 1.62968268 18.6586301 1.71115286 18.7654795 1.79736617 18.8682192 1.88832261 18.9673973 1.98374316 19.0621918 2.08334883 19.1526027 2.18686061 19.2386301 2.29455749 19.32 2.40560247 19.3964384 2.52027454 19.4679452 2.6380157 19.5342466 2.75882594 19.5950685 2.88214724 19.6506849 3.00797961 19.7005479 3.13604405 19.7449315 3.26578252 19.7838356 3.39747405 19.8164384 3.53028161 19.8435616 3.6642052 19.8643836 3.79924482 19.8794521 3.93456345 19.8884932 4.07044009 19.8915068 25.9295599 19.8915068 26.0651575 19.8884932 26.2007552 19.8794521 26.3355158 19.8643836 26.4697184 19.8435616 26.6025259 19.8164384 26.7342175 19.7838356 26.863956 19.7449315 26.9920204 19.7005479 27.1178528 19.6506849 27.2411741 19.5950685 27.3619843 19.5342466 27.4797255 19.4679452 27.5943975 19.3964384 27.7054425 19.32 27.8128604 19.2386301 27.9166512 19.1526027 28.0162568 19.0621918 28.1116774 18.9673973 28.2026338 18.8682192 28.2888471 18.7654795 28.3703173 18.6586301 28.4467654 18.5484932 28.5179123 18.4350685 28.583758 18.3186301 28.6443027 18.1991781 28.6992671 18.0775342 28.7486515 17.9531507 29.9960939 14.5512329"></polyline>
            </g>
        </g>
    </g>
</svg>