<?xml version="1.0" encoding="UTF-8"?>
<svg width="32px" height="32px" viewBox="0 0 32 32" version="1.1" xmlns="http://www.w3.org/2000/svg" xmlns:xlink="http://www.w3.org/1999/xlink">
    <!-- Generator: sketchtool 48.2 (47327) - http://www.bohemiancoding.com/sketch -->
    <title>9CFCDF62-C381-445E-9110-AFD340EDD6BD</title>
    <desc>Created with sketchtool.</desc>
    <defs></defs>
    <g id="Icons" stroke="none" stroke-width="1" fill="none" fill-rule="evenodd">
        <g id="Icons/32/removable_handle_active" fill="#3A64C8">
            <path d="M14.0006472,17.000684 L14.0006472,17 L18,17 L18,17.9062927 L17.9993528,17.9062927 L17.9993528,24.0937073 L18,24.0937073 L18,25 L14,25 L14,17.000684 L14.0006472,17.000684 Z M15,24 L17,24 L17,18 L15,18 L15,24 Z M14,16 L14,14.3554817 C10.7465454,13.5255814 8.32744446,10.5488372 8.32744446,7 L9.19590694,7 C9.19590694,10.3727575 11.6648592,13.1647841 14.8671506,13.6392027 L14.8684625,13.889701 L14.8684625,15.1202658 L17.1315375,15.1202658 C17.1311002,14.6843854 17.1306629,14.4666667 17.1302256,14.4671096 L17.1302256,13.5754153 C20.1390152,12.9395349 22.4059384,10.2332226 22.4059384,7 L23.2744009,7 C23.2744009,10.4026578 21.0501137,13.2790698 18,14.2425249 L18,16 L14,16 Z M20.3274445,7 C20.3274445,9.57483128 18.3085964,11.6699038 15.8274445,11.6699038 C13.3462925,11.6699038 11.3274445,9.57483128 11.3274445,7 L12.2913662,7 C12.2920942,9.02329758 13.8777599,10.6688324 15.8274445,10.6688324 C17.777129,10.6688324 19.3635228,9.02329758 19.3635228,7 L20.3274445,7 Z" id="Combined-Shape"></path>
        </g>
    </g>
</svg>