<?xml version="1.0" encoding="UTF-8"?>
<svg width="32px" height="32px" viewBox="0 0 32 32" version="1.1" xmlns="http://www.w3.org/2000/svg" xmlns:xlink="http://www.w3.org/1999/xlink">
    <!-- Generator: sketchtool 48.2 (47327) - http://www.bohemiancoding.com/sketch -->
    <title>2A8196AC-F773-493C-8BD9-C59453360200</title>
    <desc>Created with sketchtool.</desc>
    <defs></defs>
    <g id="Icons" stroke="none" stroke-width="1" fill="none" fill-rule="evenodd">
        <g id="Icons/32/washing_machine_active" fill="#3A64C8">
            <path d="M24,15 L8,15 L9,17 C9.14478411,17.6141168 9.64386775,18 10,18 L22,18 C22.3561322,18 22.8558024,17.6141168 23,17 L24,15 Z M8,17 L7,15 C6.97032571,14.6032807 6.99111625,14.3888214 7,14 C7.19189347,14.0850547 7.34514945,14 8,14 L24,14 C24.6547592,14 24.8080152,14.0844471 25,14 C25.0081984,14.3876063 25.030177,14.6020656 25,15 L24,17 C23.5510786,18.3705954 22.7663842,19 22,19 L10,19 C9.23411854,19 8.44823612,18.3705954 8,17 Z" id="Fill-1"></path>
            <path d="M21.4549132,8.42626415 C21.871517,9.23954717 22.3171019,10.2393962 22.3171019,10.6451321 C22.3171019,11.2 21.9343094,11.6522264 21.4645736,11.6522264 C20.9936302,11.6522264 20.6114415,11.2 20.6114415,10.6451321 C20.6114415,10.1687547 21.0443472,9.19909434 21.4549132,8.42626415 M21.4645736,12.4516226 C22.3750642,12.4516226 23.1164981,11.6413585 23.1164981,10.6451321 C23.1164981,9.76362264 22.0303094,7.78686792 21.8123472,7.39984906 L21.4754415,6.80030189 L21.1210264,7.39018868 C20.9875925,7.61298113 19.8114415,9.60181132 19.8114415,10.6451321 C19.8114415,11.6413585 20.5528755,12.4516226 21.4645736,12.4516226" id="Fill-5"></path>
            <path d="M15.8811774,8.42626415 C16.2977811,9.23954717 16.743366,10.2393962 16.743366,10.6451321 C16.743366,11.2 16.3605736,11.6522264 15.890234,11.6522264 C15.4198943,11.6522264 15.0377057,11.2 15.0377057,10.6451321 C15.0377057,10.1687547 15.4706113,9.19909434 15.8811774,8.42626415 M15.890234,12.4516226 C16.8013283,12.4516226 17.5427623,11.6413585 17.5427623,10.6451321 C17.5427623,9.76362264 16.4565736,7.78686792 16.2386113,7.39984906 L15.9017057,6.80030189 L15.5472906,7.39018868 C15.4138566,7.61298113 14.2377057,9.60181132 14.2377057,10.6451321 C14.2377057,11.6413585 14.9791396,12.4516226 15.890234,12.4516226" id="Fill-6"></path>
            <path d="M10.2644528,8.42626415 C10.6810566,9.23954717 11.1266415,10.2393962 11.1266415,10.6451321 C11.1266415,11.2 10.7438491,11.6522264 10.2735094,11.6522264 C9.80256604,11.6522264 9.42037736,11.2 9.42037736,10.6451321 C9.42037736,10.1687547 9.85388679,9.19909434 10.2644528,8.42626415 M10.2735094,12.4516226 C11.184,12.4516226 11.9260377,11.6413585 11.9260377,10.6451321 C11.9260377,9.76362264 10.8392453,7.78686792 10.6218868,7.39984906 L10.2843774,6.80030189 L9.92996226,7.39018868 C9.7965283,7.61298113 8.62037736,9.60181132 8.62037736,10.6451321 C8.62037736,11.6413585 9.36181132,12.4516226 10.2735094,12.4516226" id="Fill-7"></path>
            <path d="M9.28567547,21.4442264 C9.26997736,21.6235472 9.10635472,21.690566 8.93367547,21.690566 C8.84673208,21.6941887 8.75737358,21.6778868 8.68009057,21.6525283 L8.68009057,20.64 C8.75737358,20.6049811 8.85337358,20.5856604 8.94635472,20.5856604 C9.12205283,20.5856604 9.28567547,20.6593208 9.28567547,20.8513208 L9.28567547,21.4442264 Z M8.96567547,20.2777358 C8.74469434,20.274717 8.50801509,20.3326792 8.32809057,20.4129811 L8.32809057,22.5110943 L8.68009057,22.5110943 L8.68009057,21.9435472 C8.77669434,21.9821887 8.88235472,22.0045283 8.99163774,22.0015094 C9.31163774,21.9978868 9.63827925,21.8125283 9.63827925,21.4442264 L9.63827925,20.8579623 C9.63827925,20.4316981 9.31827925,20.2813585 8.96567547,20.2777358 Z" id="Fill-8"></path>
            <polygon id="Fill-9" points="11.4195321 20.6529208 10.4106264 20.6529208 10.4106264 19.7013736 10.0393057 19.7013736 10.0393057 21.9691472 10.4106264 21.9691472 10.4106264 21.0212226 11.4195321 21.0212226 11.4195321 21.9691472 11.7908528 21.9691472 11.7908528 19.7013736 11.4195321 19.7013736"></polygon>
            <path d="M15.8352302,23.7950189 C15.8352302,24.2876981 15.3123623,24.5455094 14.7605132,24.5455094 C14.2014189,24.5455094 13.6568151,24.2955472 13.6568151,23.7950189 L13.6568151,23.522717 C13.6568151,23.0221887 14.2014189,22.7722264 14.7605132,22.7722264 C15.3123623,22.7722264 15.8352302,23.029434 15.8352302,23.522717 L15.8352302,23.7950189 Z M14.7605132,21.9480755 C14.4296453,21.9480755 13.9436075,22.0356226 13.6568151,22.4111698 L13.6568151,21.6389434 C13.6568151,21.1384151 14.2014189,20.8956981 14.7605132,20.8956981 C15.2097208,20.8956981 15.6365887,21.0647547 15.8050415,21.4252075 L16.5561358,21.0943396 C16.1884377,20.3287547 15.5037585,20.0419623 14.7605132,20.0419623 C13.7890415,20.0341132 12.8326642,20.5569811 12.8326642,21.6021132 L12.8326642,23.8390943 C12.8326642,24.8842264 13.7890415,25.4064906 14.7605132,25.3992453 C15.7319849,25.3992453 16.6587774,24.8769811 16.6587774,23.8390943 L16.6587774,23.5154717 C16.6587774,22.4775849 15.7319849,21.9553208 14.7605132,21.9480755 Z" id="Fill-10"></path>
            <polygon id="Fill-11" points="17.1266415 23.157917 18.4724528 23.157917 18.4724528 22.3585208 17.1266415 22.3585208"></polygon>
            <path d="M21.12,24.6906566 L20.9926038,24.6906566 C20.485434,24.6906566 19.8961509,24.3845434 19.8961509,23.8103547 C19.8961509,23.1389585 20.4184151,22.8920151 20.9926038,22.8920151 L21.12,22.8920151 C21.6941887,22.8920151 22.2164528,23.1389585 22.2164528,23.8103547 C22.2164528,24.3845434 21.6199245,24.6906566 21.12,24.6906566 M20.9926038,20.7957132 L21.12,20.7957132 C21.5601509,20.7957132 21.9924528,21.0492981 21.9924528,21.5045434 C21.9924528,22.0044679 21.4563019,22.1837887 21.0233962,22.1837887 C20.5898868,22.1837887 20.1044528,22.0044679 20.1044528,21.5045434 C20.1044528,21.0492981 20.5458113,20.7957132 20.9926038,20.7957132 M22.3142642,22.4742038 C22.7097358,22.3105811 22.8437736,21.8776755 22.8437736,21.526883 C22.8437736,20.4817509 21.9858113,20.0422038 21.12,20.0422038 L20.9926038,20.0422038 C20.1267925,20.0422038 19.2766792,20.4594113 19.269434,21.526883 C19.269434,21.8553358 19.4113208,22.3250717 19.8140377,22.4965434 C19.2543396,22.7507321 19.0526792,23.3406189 19.0526792,23.7578264 C19.0683774,24.8621283 19.8961509,25.4743547 20.9926038,25.4743547 L21.12,25.4743547 C22.2098113,25.4743547 23.0448302,24.8621283 23.0677736,23.7578264 C23.0677736,23.2355623 22.9113962,22.7132981 22.3142642,22.4742038" id="Fill-12"></path>
        </g>
    </g>
</svg>