<?xml version="1.0" encoding="UTF-8"?>
<svg width="16px" height="16px" viewBox="0 0 16 16" version="1.1" xmlns="http://www.w3.org/2000/svg" xmlns:xlink="http://www.w3.org/1999/xlink">
    <!-- Generator: sketchtool 48.2 (47327) - http://www.bohemiancoding.com/sketch -->
    <title>61A78D71-E207-45F5-82F9-56657EE25C92</title>
    <desc>Created with sketchtool.</desc>
    <defs></defs>
    <g id="Icons" stroke="none" stroke-width="1" fill="none" fill-rule="evenodd" fill-opacity="0.32">
        <g id="Icons/16/photos" fill="#1F2A44">
            <path d="M4,4 L4.54855627,2.62860932 C4.70041962,2.24895094 5.06812837,2 5.47703296,2 L10.522967,2 C10.9318716,2 11.2995804,2.24895094 11.4514437,2.62860932 L12,4 L14,4 C14.5522847,4 15,4.44771525 15,5 L15,13 C15,13.5522847 14.5522847,14 14,14 L2,14 C1.44771525,14 1,13.5522847 1,13 L1,5 C1,4.44771525 1.44771525,4 2,4 L4,4 Z M8,12 C9.65685425,12 11,10.6568542 11,9 C11,7.34314575 9.65685425,6 8,6 C6.34314575,6 5,7.34314575 5,9 C5,10.6568542 6.34314575,12 8,12 Z M8,11 C6.8954305,11 6,10.1045695 6,9 C6,7.8954305 6.8954305,7 8,7 C9.1045695,7 10,7.8954305 10,9 C10,10.1045695 9.1045695,11 8,11 Z" id="Combined-Shape"></path>
        </g>
    </g>
</svg>